<svg width="669" height="51" viewBox="0 0 669 51" fill="none" xmlns="http://www.w3.org/2000/svg">
<path d="M90.12 51H67.944L80.424 22.392L49.032 51H41.16L34.824 22.392L22.344 51H0.264L22.44 0.119997H50.376L56.232 25.656L84.456 0.119997H112.296L90.12 51ZM109.751 21.432L118.871 0.119997H140.663C137.975 6.648 135.895 11.736 134.423 15.384C132.951 18.968 131.863 21.656 131.159 23.448C130.455 25.24 130.039 26.392 129.911 26.904C129.783 27.352 129.719 27.672 129.719 27.864C129.335 29.144 129.143 30.168 129.143 30.936C129.143 33.176 129.783 34.936 131.063 36.216C132.407 37.432 134.135 38.04 136.247 38.04H141.911C143.767 38.04 145.463 37.72 146.999 37.08C148.599 36.44 150.007 35.64 151.223 34.68C152.503 33.72 153.591 32.696 154.487 31.608C155.383 30.52 156.119 29.528 156.695 28.632L169.079 0.119997H190.967L180.599 23.832C178.679 28.248 176.727 32.152 174.743 35.544C172.759 38.872 170.487 41.688 167.927 43.992C165.431 46.296 162.519 48.056 159.191 49.272C155.863 50.424 151.927 51 147.383 51H133.847C128.471 51 123.991 50.744 120.407 50.232C116.887 49.72 114.039 48.92 111.863 47.832C109.687 46.68 108.151 45.208 107.255 43.416C106.359 41.624 105.911 39.448 105.911 36.888C105.911 35.608 106.103 34.04 106.487 32.184C106.871 30.52 107.319 28.856 107.831 27.192C108.407 25.528 109.047 23.608 109.751 21.432ZM230.128 34.872V34.296C230.128 33.784 230 33.272 229.744 32.76C229.552 32.184 229.136 31.896 228.496 31.896H205.456C203.152 31.896 201.072 31.448 199.216 30.552C197.36 29.592 195.76 28.408 194.416 27C193.136 25.528 192.144 23.928 191.44 22.2C190.736 20.472 190.384 18.776 190.384 17.112C190.384 15.576 190.896 13.848 191.92 11.928C193.008 9.944 194.384 8.088 196.048 6.36C197.776 4.568 199.696 3.096 201.808 1.944C203.984 0.727997 206.16 0.119997 208.336 0.119997H267.088C265.296 2.296 263.28 4.472 261.04 6.648C258.8 8.824 256.272 11 253.456 13.176H215.44C214.544 13.176 213.808 13.656 213.232 14.616C212.656 15.576 212.368 16.344 212.368 16.92V17.4C212.368 17.464 212.496 17.624 212.752 17.88C213.072 18.072 213.328 18.232 213.52 18.36C213.84 18.616 214.288 18.872 214.864 19.128C215.44 19.32 215.76 19.416 215.824 19.416H237.712C240.144 19.416 242.224 19.928 243.952 20.952C245.744 21.912 247.184 23.16 248.272 24.696C249.424 26.168 250.256 27.768 250.768 29.496C251.344 31.224 251.632 32.824 251.632 34.296V34.872C251.632 36.536 251.152 38.328 250.192 40.248C249.296 42.104 248.08 43.832 246.544 45.432C245.072 47.032 243.344 48.376 241.36 49.464C239.44 50.488 237.456 51 235.408 51H176.656C177.04 50.36 177.808 49.336 178.96 47.928C180.176 46.52 181.456 45.112 182.8 43.704C184.144 42.232 185.392 40.952 186.544 39.864C187.696 38.712 188.4 38.136 188.656 38.136H227.824C228.976 38.136 229.648 37.848 229.84 37.272C230.032 36.696 230.128 36.088 230.128 35.448V34.872ZM249.419 51V50.904C249.483 50.648 250.027 49.944 251.051 48.792C252.075 47.64 253.291 46.36 254.699 44.952C256.171 43.544 257.643 42.2 259.115 40.92C260.651 39.576 261.931 38.616 262.955 38.04H276.779L287.723 13.08H265.931V12.984C265.995 12.728 266.539 12.024 267.563 10.872C268.651 9.72 269.899 8.44 271.307 7.032C272.779 5.624 274.251 4.28 275.723 3C277.259 1.656 278.539 0.695997 279.563 0.119997H337.259C336.747 1.016 335.851 2.2 334.571 3.672C333.355 5.08 332.011 6.488 330.539 7.896C329.131 9.304 327.755 10.52 326.411 11.544C325.067 12.568 324.075 13.08 323.435 13.08H309.899L298.955 38.04H320.651C320.139 38.936 319.243 40.12 317.963 41.592C316.747 43 315.403 44.408 313.931 45.816C312.523 47.224 311.147 48.44 309.803 49.464C308.459 50.488 307.467 51 306.827 51H249.419ZM332.442 27.672V27.48C332.442 24.408 333.242 21.24 334.842 17.976C336.506 14.712 338.714 11.768 341.466 9.144C344.218 6.52 347.418 4.376 351.066 2.712C354.714 0.983997 358.554 0.119997 362.586 0.119997H410.106C407.866 2.552 405.626 4.856 403.386 7.032C401.146 9.144 398.682 11.16 395.994 13.08H366.042C365.018 13.08 363.93 13.368 362.778 13.944C361.69 14.456 360.634 15.16 359.61 16.056C358.586 16.952 357.626 17.976 356.73 19.128C355.898 20.216 355.258 21.304 354.81 22.392C354.234 24.056 353.946 25.368 353.946 26.328C353.946 27.544 354.33 28.856 355.098 30.264C355.866 31.608 356.826 32.856 357.978 34.008C359.194 35.16 360.506 36.12 361.914 36.888C363.386 37.656 364.762 38.04 366.042 38.04H393.498C391.706 40.216 389.722 42.456 387.546 44.76C385.37 47 382.81 49.08 379.866 51H370.65C365.914 51 361.242 50.648 356.634 49.944C352.09 49.24 348.026 48.024 344.442 46.296C340.858 44.504 337.946 42.104 335.706 39.096C333.53 36.088 332.442 32.28 332.442 27.672ZM483.776 51H461.6L474.08 22.392L442.688 51H434.816L428.48 22.392L416 51H393.92L416.096 0.119997H444.032L449.888 25.656L478.112 0.119997H505.952L483.776 51ZM571.951 51H551.503L549.103 40.152C548.975 40.536 548.431 41.272 547.471 42.36C546.511 43.448 545.423 44.6 544.207 45.816C542.991 47.032 541.807 48.152 540.655 49.176C539.503 50.2 538.671 50.808 538.159 51H489.391C489.519 50.36 489.583 50.136 489.583 50.328V50.04L531.055 5.88C531.311 5.496 531.759 4.984 532.399 4.344C533.103 3.704 533.871 3.096 534.703 2.52C535.535 1.88 536.335 1.336 537.103 0.887999C537.935 0.375998 538.607 0.119997 539.119 0.119997H558.511C559.343 0.119997 560.047 0.471996 560.623 1.17599C561.263 1.88 561.807 2.744 562.255 3.768C562.767 4.792 563.183 5.88 563.503 7.032C563.887 8.12 564.175 9.048 564.368 9.816L571.951 51ZM525.679 37.176V38.136H549.103L545.071 15.576L525.679 37.176ZM577.501 51L599.677 0.119997H627.613L634.141 28.728L646.717 0.119997H668.605L646.333 51H618.493L612.061 22.392L599.581 51H577.501Z" fill="white"/>
</svg>
